
<svg width="12px" height="16px" viewBox="0 0 12 16" version="1.1" xmlns="http://www.w3.org/2000/svg" xmlns:xlink="http://www.w3.org/1999/xlink">
    <defs>
        <path d="M10,10 C8.9,10 8,9.1 8,8 C8,6.9 8.9,6 10,6 C11.1,6 12,6.9 12,8 C12,9.1 11.1,10 10,10 M10,2 C6.69,2 4,4.87 4,8.4 C4,14.4 9.4,17.75 9.63,17.89 C9.74,17.96 9.87,18 10,18 C10.13,18 10.26,17.96 10.37,17.89 C10.6,17.75 16,14.4 16,8.4 C16,4.87 13.31,2 10,2" id="path-1"></path>
    </defs>
    <g id="Symbols" stroke="none" stroke-width="1" fill="none" fill-rule="evenodd">
        <g id="Polaris-icon/Minor/Mono/Locations" transform="translate(-4.000000, -2.000000)">
            <mask id="mask-2" fill="white">
                <use xlink:href="#path-1"></use>
            </mask>
            <use id="icon" fill="#31373D" xlink:href="#path-1"></use>
        </g>
    </g>
</svg>